<svg xmlns="http://www.w3.org/2000/svg" width="200" height="200" fill="none" viewBox="0 0 200 200">
<!-- SVG created with Arrow, by QuiverAI (https://quiver.ai) -->
  <path d="m187.7 124.2-5.76-1.37-1.77-3.9 4.18-4.09-3.84-4.58 2.31-3.06 4.58-0.76-0.16-7.74-4.89-1.58 1.54-6.08-6.4-7.1-4.73 3.29-2.77-1.18-0.83-6.09-2.39 0.06-15.05-44.93-29.45-25.75-31.36-4.36-39.84 19.35-21.23 34.94-11.54 12.24 5.52 15.38-4.65 10.17 5.19 12.03-7.01 10.06-5.74 20.84 14.95 26.91 28.4 7.01 13.97-6.28c4.24 8.76 15.04 20.41 22.37 27.79l31.39-21.19-2.1 7.12 9.15 4.89 3.99-5.2 3.46 0.67 2.8 5.87 9.15-2.54 0.06-6.4 2.47-1.65 5.72 2.31 5.52-8.53-4.31-4.48 1.12-2.93 4.95-2.29-0.9-3.99 3.52-1.84 1.47-3.53 6.57-0.52 8.43-6.49-3.8-6.31 1.12-2.29 6.68-1.43-0.06-10.47zm-28.56-41.03 2.91 4.25-1.26 2.75-1.65-2.08v-4.92z" fill="#2E3A40"/>
  <path d="m119.7 12.49-33.95 14.59-6.04 9.13-12.9 0.48 7.82-13.58 17.75-14.59 27.32 3.97z" fill="#969EA1"/>
  <path d="m73.23 22.08-9.25 15.15-9.15 0.58 4.98-12.7 24.91-13.4-11.49 10.37z" fill="#969EA1"/>
  <path d="m53.12 27.41-19.51 31.67 2.5 2.87 19.11-34.54h-2.1z" fill="#BEC3C6"/>
  <path d="m52.46 39.61-6.22 12.2 6.7 7.54 3.17-2.01 7.28-18.06-10.93 0.33z" fill="#B7BCC0"/>
  <path d="m63.39 39.28-8.98 18.52 15.77-5.47 15.75-22.2 0.67 0.83 1.26 1.95-16.14 20.9-18.5 7.21-5.09-9.27 4.88-12.24 10.38-0.23z" fill="#2E3A40"/>
  <path d="m85.04 26.94 36.27-14.7 10.77 9.78h-13.09l-24.28 16.76-7.49-10.06-2.18-1.78z" fill="#969EA1"/>
  <path d="m110.3 30.74-1.6 1.75 5.19 5.41 1.26-1.58-4.85-5.58z" fill="#969EA1"/>
  <path d="m105.4 23.05-1.32 1.37 2.91 3.43 1.53-1.31-3.12-3.49z" fill="#2E3A40"/>
  <path d="m86.19 30.19 7.12 10.13-8.59 16.89-28.47 10.37-7.82 12.13-3.34-2.01 2.64-8.59-14.32-9.27 16.35-29.23-6.85 29.43 4.5 8.07 2.21 0.2 3.53-8.2 16.96-5.95 16.08-23.97z" fill="#969EA1"/>
  <path d="m32.42 62.15-9.15 10.06 1.19 2.01 5.59-4.16 13.9 7.15 2.36-8.77-13.89-6.29z" fill="#BEC3C6"/>
  <path d="m28.58 73.82-3.27 8.59 2.35 2.54 1.53-0.76 1.59-1.06 11 2.28-0.13-6.45-13.07-5.14z" fill="#2E3A40"/>
  <path d="m28.91 85.71-4.24 11.05 2.47 0.96 3.07 0.29 1.4-2.67 11.56-5.08-10.9 2.6-3.36-7.15z" fill="#BEC3C6"/>
  <path d="m30.05 97.72-3.4 4.42 0.82 2.99 7.69-7.74 5.39 0.42 2.36-3.99-3.78 1.19-9.08 2.71z" fill="#BEC3C6"/>
  <path d="m27.34 106 7.82-8.77 6.68 1.95 9.84-3.16 3.46 1.66 3.99 10-3.06 7.34-12.31 6.42 11.85-9.27 2.11-4.29-4.36-7.61-3.71-0.52-8.59 3.37-5.97-2.4-6.77 6.38-0.98-1.1z" fill="#fff"/>
  <path d="m27.53 107.7 1.12 11.39-2.4-5.41-5.01 6.48-5.32 16.59 5.71-1.69 13.53 0.97 14.13 3.46 4.33-13.78 12.66-19.82-1.53-2.68-3.53 6.59-5.97 7.41-7.12 1.78 7.12-6.15 2.4-5.72-4.51-7.09-10.43 3.7-7.12-2.99-8.06 6.96z" fill="#969EA1"/>
  <path d="m33.92 103.2-3.2 4.69 1.84 4.22 2.7 3.59 1.53-7.94-2.87-4.56z" fill="#2E3A40"/>
  <path d="m48.2 103.2 3.27 4.43-2.5 4.55-10.24 4.82 2.66-8.52 6.81-5.28z" fill="#2E3A40"/>
  <path d="m35.66 118.3-5.55 16.49 0.92 0.06 5.02-16.49-0.39-0.06z" fill="#BEC3C6"/>
  <path d="m66.77 106.1-15.42 31.05-1.33 2.15 10.11 3.13 2.37-16.32 7.25-7.31-1.84-11.67-1.14-1.03z" fill="#969EA1"/>
  <path d="m70.11 119.5-6.16 6.49-1.6 17.62 1.27-0.26 9.35-4.82 0.98 2.43-10.43 6.95-25.81-8.66-13.65-1.3-7.82 2.11 11.1 23.45-0.49-12.77 16.97 0.97 10.8 18.19 1.19 0.13 21.97-22.71 1.97-8.72-9.64-19.1z" fill="#BEC3C6"/>
  <path d="m29.03 153.2-0.38 10.23 23.16 5.58-8.64-15.11-14.14-0.7z" fill="#BEC3C6"/>
  <path d="m22.4 144.6 4.81 2.31 16.68 0.72-13.43-2.31-8.06-0.72z" fill="#2E3A40"/>
  <path d="m61.54 153.7-2.91 3.2 2.25 3.9 3.91-0.9 1.05-2.74-1.73-3.52-2.57 0.06z" stroke="#2E3A40" stroke-miterlimit="10" stroke-width="2"/>
  <path d="m101.7 153.4-9.21 35.51 2.53-1.84 10.07-33.93-3.39 0.26z" fill="#BEC3C6"/>
  <path d="m112 155.1-3.27 4.86-2.14 14.33-2.43 0.51-0.39 2.54 2.94 0.84 0.98-2.08-0.38-1.81 1.36-13.09 3-1.3 0.92-4.8h-0.59z" fill="#fff" stroke="#2E3A40" stroke-miterlimit="10" stroke-width="1.5"/>
  <path d="m119.2 145.3 4.72 1.27 5.12-3.59 0.26-5.07 4.66-1.51 3.13 6.39 3.4 1.86-1.53 1.27 7.12 5.85 4.59-2.11 3.33 4.06 0.98 3.74 5.9 0.45-0.45 2.81-3.65 1.37-1.32 5.58 3.59 3.2-2.84 5.05-5.02-2.22-4.34 3.3-0.06 5.82-5.36 1.3-3.19-5.5-5.39-0.32-3.37 4.91-4.48-2.9 0.66-5.44-3.49-3.81-5.29 0.33-1.4-6.38 4.62-1.88-0.9-6.12 2.04-4.03-4.49-4.36 2.45-3.32z" fill="url(#paint0_linear_5416_8622)" stroke="#2E3A40" stroke-miterlimit="10" stroke-width="2.5"/>
  <path d="m137.8 169c5.75 0 9.46-5 8.82-10.1-0.72-5.83-4.98-7.86-8.82-7.47-5.61 0.56-8.93 4.81-8.93 9.31 0 5.3 4.85 8.26 8.93 8.26z" fill="#fff" stroke="#2E3A40" stroke-miterlimit="10" stroke-width="2.5"/>
  <path d="m158.9 105.9 4.95-0.19 1.9 7.01 5.12 1.43 4.08-2.02 5.12 5.02-3.53 4.06 2.18 5.58 6.29 0.46 0.2 5.58-6.29 1.1-2.32 6.22 2.63 4.62-3.77 3.62-5.39-2.5-4.32 7.06-7.43-0.2-5.61-6.51-5.55 2.86-4.21-4.98 3.53-5.07-1.84-5.12-6.49-1.1-0.26-5.12 6.88-1.37 2.32-6.25-3.74-5.12 3.68-4.58 4.91 3.23 4.98-2.71 1.98-5.01z" fill="url(#paint1_linear_5416_8622)" stroke="#2E3A40" stroke-miterlimit="10" stroke-width="2.5"/>
  <path d="m161.4 142.7c8.19-0.59 12.52-7.68 12.2-13.57-0.45-8.04-6.91-12.17-12.82-12.17-7.25 0-12.1 6.28-11.97 13 0.13 7.07 5.99 13.19 12.59 12.74z" fill="#2E3A40"/>
  <path d="m161.2 135.4c4.69-0.39 5.95-4.42 5.43-6.96-0.85-3.96-3.82-4.93-6.11-4.68-4.21 0.46-5.4 3.56-5.33 5.96 0.13 3.74 3.13 5.94 6.01 5.68z" fill="#fff"/>
  <path d="m79.81 150.2-2.18 8.52 20.14-10.63-0.26-1.04-17.7 3.15z" fill="#969EA1"/>
  <path d="m123 29.6-18.69 19.32-3.2-0.39-2.46 2.68 1.12 3.4 2.9 0.13 1.77-3.53 19.45-19.95 18.98 0.2-1.77-1.86h-18.1z" fill="#fff"/>
  <path d="m125.2 40.65-18.99 18.26v27.75l1.7 0.76v-27.86l17.66-17.35h5.71l1.63 1.72 2.14 0.45 1.6-1.97v-2.93l-2.74-1.28-2.77 1.21-1.05 1.3-4.89-0.06z" fill="#fff"/>
  <path d="m126.6 50.05-14.59 13.93v17.08l1.67-0.69v-16l13.56-12.56 26.38 0.39-0.59-2.15h-26.43z" fill="#fff"/>
  <path d="m138.4 57.14v1.77h7.58l6.98 7.44v22.71l10.28 10.3v-2.03l-8.43-9.7v-21.8l-7.95-8.69h-8.46z" fill="#fff"/>
  <path d="m103.4 51.81c0 1.96-1.33 2.74-2.02 2.74-1.67 0-2.26-1.37-2.26-2.41 0-1.51 0.98-2.48 2.19-2.48 1.43 0 2.09 0.84 2.09 2.15z" fill="#2E3A40" stroke="#fff" stroke-miterlimit="10" stroke-width="1.5"/>
  <path d="m135.6 38.72c1.83 0.59 1.14 3.03 0.65 4.07-0.52 0.82-2.52 1.52-3.63 0.43-0.98-0.97-1.17-2.76-0.29-3.88 0.75-0.95 2.25-1.01 3.27-0.62z" fill="#2E3A40" stroke="#fff" stroke-miterlimit="10" stroke-width="1.5"/>
  <path d="m84.2 58.32-27.45 10.98-5.16 8.27 2.7 5.49-8.18-0.65-1.7-5.23 2.03-7.94-2.03-0.59-3.3 8.53 1.47 6.69-2.94 2.25 1.53 2.61-1.9 1.33 2.25 0.26 3.2 1.89 2.4-2.08 1.04 0.9 1.97-1.65 4.12-0.46 11.97 12.5 15.55 13.3 26.89-24.27-13.46-12.2-11-19.93z" fill="#2E3A40"/>
  <path d="m58.01 70.06-5.39 7.44 1.12 1.3 24.69-7.73 4.88-10.77-25.3 9.76z" fill="#fff"/>
  <path d="m65.83 83.58 9.51-3.93c0.59 2.96-1.08 6.36-2.51 7.6l-4.01-0.59-2.99-3.08z" fill="#fff"/>
  <path d="m61.35 90.26 18.56 6.75 9.67-9.89v5.99l-9.08 10.12-14.22-4.01-4.93-8.96z" fill="#fff"/>
  <path d="m81.97 104.5 7.68-8.48-0.13-11.9-5.71-0.97-6.91 9.21 1.26 1.23 9.9-6.97-8.64 10.06 0.39 1.29 9.22-8.76 0.26 2.69-8.53 10 1.21 2.6z" fill="#BEC3C6"/>
  <path d="m82.79 104.7 1.15 9.03-2.43 1.03-2.18-10.91 3.46 0.85z" fill="#969EA1"/>
  <path d="m92.03 52.33-1.64 2.15 11.89 12.26v14.32l1.33-0.75v-14.22l-11.58-13.76z" fill="#fff"/>
  <path d="m114.6 89.31-2.21 1.34v18.26l-9.87 8.84-0.36 28.73 15.71-8.83 9.21-31.22-8.4-18.54-4.08 1.42z" fill="url(#paint2_linear_5416_8622)" stroke="#2E3A40" stroke-miterlimit="10" stroke-width="1.5"/>
  <path d="m115.4 126.7-3.1-1.14 12.12-25.55 2.36 4.98-8 29.79-3.38-8.08z" fill="#2E3A40"/>
  <path d="m133.9 110-1.43 1.62 4.82 11.5 2.43-1.71-5.82-11.41z" fill="#2E3A40"/>
  <path d="m147.7 92.01 9.44 10.43 1.56-1.33-10.23-10.5-0.77 1.4z" fill="#969EA1"/>
  <path d="m130.9 63.72-7.75 6.34-2.94 15.88 8.18 15.42h5.46l10.96-13.59 0.19-16.63-8.24-7.74-5.86 0.32z" fill="url(#paint3_linear_5416_8622)" stroke="#2E3A40" stroke-miterlimit="10" stroke-width="1.5"/>
  <path d="m133.5 68.78-7.25 7.74-1.43 7.97-2.04 1.44 0.39 0.9 3.13-2.01 2.77 2.01-1.9 2.81-0.07 5.31 1.77-0.13 1.6-5.12 4.08-4.68-3.26-6.93 3.06-2.75 4.25 1.37-0.07 10-4.36 8.52 0.92-0.19 5.8-8.33-0.52-13.08-6.87-4.85z" fill="#2E3A40"/>
  <path d="m93.05 113.3 15.35-15.17v2.82l-12.96 12.74v24.44l-2.39 0.46v-25.29z" fill="#fff"/>
  <path d="m89.03 117.6v11.33l-4.69 4.28v19.53l1.32-0.9v-18.5l4.56-4.61v-11.39l-1.19 0.26z" fill="#fff"/>
  <path d="m113 126.2c2.94 0 3.59-2.77 3.46-3.98-0.32-2.74-2.5-3.84-3.97-3.78-2.7 0.1-4.1 1.79-4.23 3.85-0.2 2.84 2.05 3.91 4.74 3.91z" fill="#2E3A40"/>
  <path d="m113.2 125c2.03-0.2 2.29-1.92 2.16-2.88-0.26-1.75-1.59-2.27-2.58-2.27-1.76 0.06-2.54 1.23-2.61 2.47-0.13 1.63 1.02 2.84 3.03 2.68z" fill="#fff"/>
  <path d="m95.25 144.2c2.6 0 3.48-1.95 3.42-3.63-0.13-2.54-1.96-3.22-3.23-3.22-2.32 0-3.68 1.71-3.68 3.29 0 2.25 1.26 3.56 3.49 3.56z" fill="#2E3A40"/>
  <path d="m95.51 142.6c1.33-0.06 1.85-1.22 1.78-2.32-0.13-1.38-1.17-1.78-1.91-1.78-1.26 0-2.01 1.04-2.01 2.01 0 1.18 0.88 2.16 2.14 2.09z" fill="#BEC3C6"/>
  <path d="m94.31 96c-2.25 0-2.54 1.43-2.22 2.4 0.46 1.31 1.65 1.11 2.28 1.24 1.36 0.32 1.88-0.65 2.08-1.3 0.26-0.91-0.59-2.34-2.14-2.34z" fill="#969EA1" stroke="#2E3A40" stroke-miterlimit="10" stroke-width=".7"/>
  <path d="m94.7 97.14c-0.91 0-1.03 0.58-0.91 0.97 0.2 0.62 0.72 0.52 0.98 0.58 0.67 0.17 0.92-0.32 0.99-0.65 0.1-0.42-0.32-0.9-1.06-0.9z" fill="#fff"/>
  <defs>
    <linearGradient id="paint0_linear_5416_8622" x1="138.4" x2="138.4" y1="136.4" y2="158.1" gradientUnits="userSpaceOnUse">
      <stop stop-color="#B7BCC0" offset="0"/>
      <stop stop-color="#747A7D" offset="1"/>
    </linearGradient>
    <linearGradient id="paint1_linear_5416_8622" x1="161.6" x2="161.6" y1="105.7" y2="129.2" gradientUnits="userSpaceOnUse">
      <stop stop-color="#B7BCC0" offset="0"/>
      <stop stop-color="#747A7D" offset="1"/>
    </linearGradient>
    <linearGradient id="paint2_linear_5416_8622" x1="114.7" x2="114.7" y1="87.89" y2="107.2" gradientUnits="userSpaceOnUse">
      <stop stop-color="#B7BCC0" offset="0"/>
      <stop stop-color="#969EA1" offset="1"/>
    </linearGradient>
    <linearGradient id="paint3_linear_5416_8622" x1="132.6" x2="132.6" y1="63.34" y2="77.38" gradientUnits="userSpaceOnUse">
      <stop stop-color="#B7BCC0" offset="0"/>
      <stop stop-color="#969EA1" offset="1"/>
    </linearGradient>
  </defs>
</svg>